PathFileType	4	(X/Y/Z)	D:\TRACE\spotREDO_2-26-24\spot_Both_Motion_3_4-platform.trc
DataRate	CameraRate	NumFrames	NumMarkers	Units	OrigDataRate	OrigDataStartFrame	OrigNumFrames
100.00	100.00	      42	5	mm	100.00	5251	      7000
Frame#	Time	Left_Front			Right_Front			Left_Aft			Right_Aft			Post			
		X1	Y1	Z1	X2	Y2	Z2	X3	Y3	Z3	X4	Y4	Z4	X5	Y5	Z5	

5251	52.500	-717.87122	-13.37419	-578.19635	696.90680	-3.62513	-493.46399	-789.47260	13.79410	640.11066	780.17328	21.24114	645.57275	-22.90873	605.57361	-994.35291	
5252	52.510	-717.66675	-13.33322	-578.19989	696.91254	-3.55382	-493.44705	-789.38574	13.63087	640.09973	780.17828	21.19102	645.56848	-23.10549	605.57458	-994.20398	
5253	52.520	-717.58276	-13.32918	-578.14038	697.04169	-3.51603	-493.38058	-789.35107	13.57494	640.14734	780.21014	21.12066	645.52985	-23.21559	605.68719	-994.13977	
5254	52.530	-717.44812	-13.23069	-578.13837	697.11676	-3.45814	-493.33914	-789.24750	13.48818	640.20563	780.06708	20.88575	645.39313	-23.16376	605.82098	-994.15564	
5255	52.540	-717.39197	-13.13579	-578.09344	697.15637	-3.35747	-493.31879	-789.13074	13.36773	640.24384	780.05432	20.78682	645.44336	-23.13067	606.10504	-994.27496	
5256	52.550	-717.29602	-13.07257	-578.13647	697.23297	-3.30709	-493.28217	-789.02185	13.25656	640.22937	780.08453	20.66089	645.46783	-22.97153	606.29663	-994.35522	
5257	52.560	-717.26978	-13.22545	-577.87500	697.35278	-3.21529	-493.21500	-788.98480	13.17109	640.28015	780.11316	20.52421	645.50098	-22.95044	606.35944	-994.39667	
5258	52.570	-717.12042	-13.08553	-578.20905	697.36719	-3.07321	-493.18222	-789.02405	13.13568	640.32117	780.12952	20.37278	645.46399	-22.86957	606.48523	-994.45721	
5259	52.580	-717.01190	-12.98072	-578.16589	697.55463	-2.83695	-493.11700	-788.93213	13.08039	640.31238	780.21271	20.38381	645.50452	-22.83063	606.59155	-994.49036	
5260	52.590	-717.02490	-12.73065	-578.04230	697.73730	-2.66373	-493.00964	-788.95782	13.01965	640.38861	780.22430	20.28091	645.53259	-22.62646	606.83008	-994.35321	
5261	52.600	-717.08948	-12.41083	-577.82257	697.81604	-2.59463	-493.00629	-788.91412	12.89147	640.35919	780.27283	20.09193	645.63403	-22.36984	607.05029	-993.97748	
5262	52.610	-717.03595	-12.28707	-577.70502	697.61945	-2.27025	-493.05127	-788.87762	12.78493	640.39856	780.30389	19.88302	645.61810	-22.63895	607.36884	-993.92566	
5263	52.620	-717.03467	-12.08121	-577.66913	697.67047	-2.24059	-493.02243	-788.83307	12.62766	640.44586	780.76617	19.42400	645.67719	-22.47154	607.62628	-993.62500	
5264	52.630	-716.90973	-11.94663	-577.65222	697.67487	-2.05394	-493.03802	-788.76483	12.44400	640.48376	780.69757	19.47469	645.74719	-22.39463	607.97894	-992.92145	
5265	52.640	-716.85144	-11.80217	-577.63751	697.73285	-1.89079	-493.01691	-788.68329	12.46708	640.53760	780.81982	19.43474	645.83173	-22.34535	608.26959	-992.47516	
5266	52.650	-716.72418	-11.70338	-577.56799	697.81445	-1.89229	-492.93686	-788.55768	12.40664	640.57092	780.82587	19.40458	645.85736	-22.49731	608.51764	-992.07776	
5267	52.660	-716.69250	-11.59173	-577.52112	697.82806	-1.86440	-492.92984	-788.65125	12.45015	640.48798	780.90820	19.22789	645.90491	-22.37457	608.68799	-991.80737	
5268	52.670	-716.67450	-11.50571	-577.54840	697.81909	-1.77175	-492.92996	-788.63660	12.37224	640.47913	780.88544	19.14198	645.91241	-22.25865	608.78784	-991.73163	
5269	52.680	-716.60126	-11.33984	-577.57501	697.81836	-1.63260	-492.98981	-788.63306	12.08627	640.50226	780.89417	18.74619	646.02484	-22.22917	608.86774	-991.75140	
5270	52.690	-716.68811	-11.19232	-577.51782	697.77344	-1.56289	-492.87738	-788.55176	12.15930	640.60724	780.90155	18.72079	645.99243	-22.27563	609.07074	-991.82904	
5271	52.700	-716.72284	-11.08600	-577.48047	697.98645	-1.54506	-492.79349	-788.45319	12.04161	640.67786	781.02759	18.71176	646.01697	-22.35581	609.45819	-991.96313	
5272	52.710	-716.73804	-10.86627	-577.43433	698.10382	-1.44201	-492.69415	-788.39893	11.91699	640.71045	781.11749	18.59854	646.09320	-22.33617	609.68884	-992.23816	
5273	52.720	-716.83051	-10.60353	-577.43158	698.17737	-1.42943	-492.69180	-788.25598	11.27627	640.78522	781.01465	18.38158	646.18695	-22.35404	610.01123	-992.18481	
5274	52.730	-716.77820	-10.50978	-577.48279	698.25470	-1.38316	-492.66348	-788.26843	10.98262	640.80896	780.97211	18.28186	646.21136	-22.23330	610.20496	-992.10236	
5275	52.740	-716.68579	-10.43514	-577.47260	698.30139	-1.27586	-492.64453	-788.22797	10.81745	640.89307	780.99225	18.18783	646.26782	-22.12513	610.39136	-991.76825	
5276	52.750	-716.59137	-10.23384	-577.49860	698.53571	-1.33870	-492.60278	-788.11731	10.71807	640.92554	781.06122	18.15967	646.29254	-21.74311	610.63867	-991.30322	
5277	52.760	-716.40747	-10.34165	-577.28595	698.29047	-1.06714	-492.54620	-788.07855	10.62266	640.99658	781.15259	18.06300	646.32727	-21.80512	610.86969	-990.86511	
5278	52.770	-716.26605	-10.25726	-577.26898	698.34943	-0.88328	-492.49551	-788.08734	10.47978	641.02930	781.22192	17.88037	646.44781	-21.94847	610.94690	-990.58820	
5279	52.780	-716.30219	-10.24600	-577.21497	698.29022	-0.88745	-492.53564	-788.07129	10.32400	641.13080	781.24176	17.63787	646.53009	-21.96179	611.14960	-990.19635	
5280	52.790	-716.16321	-10.19823	-577.21198	698.23682	-0.73803	-492.65439	-788.07336	10.10862	641.11383	781.30341	17.40193	646.46588	-22.07077	611.41473	-989.69781	
5281	52.800	-716.07849	-10.03347	-577.23926	698.32007	-0.54221	-492.44531	-787.99365	10.15535	641.17145	781.36719	17.31421	646.48669	-22.05431	611.62714	-989.52252	
5282	52.810	-715.97455	-9.89976	-577.22833	698.42871	-0.03631	-492.38980	-788.00793	10.06967	641.17267	781.49792	17.22337	646.55157	-22.16435	611.93036	-989.53888	
5283	52.820	-715.91907	-9.73428	-577.22632	698.39813	0.19676	-492.43298	-788.00317	10.02529	641.17383	781.50928	17.10775	646.56555	-22.05640	612.17883	-989.63861	
5284	52.830	-715.94293	-9.62758	-577.21649	698.36310	0.25613	-492.44595	-787.96063	10.00674	641.25659	781.40692	16.96325	646.58551	-21.89499	612.29608	-989.92053	
5285	52.840	-715.95526	-9.46086	-577.30017	698.49371	0.28602	-492.44070	-788.01703	9.75226	641.15363	781.32416	16.78010	646.56750	-21.84660	612.39691	-989.97595	
5286	52.850	-716.01825	-9.31709	-577.33972	698.53308	0.27370	-492.50021	-787.98077	9.82922	641.27228	781.25122	16.58254	646.54254	-21.74417	612.52802	-990.07251	
5287	52.860	-716.04156	-9.15660	-577.33173	698.53412	0.40659	-492.45697	-787.91669	9.75392	641.34161	781.33221	16.57317	646.62329	-21.73533	612.74512	-990.08136	
5288	52.870	-716.01471	-9.06832	-577.32501	698.53296	0.51426	-492.37320	-787.89777	9.69462	641.35095	781.47375	16.59636	646.65619	-21.71969	612.90991	-989.96259	
5289	52.880	-716.02649	-9.09367	-577.21454	698.54791	0.56969	-492.24377	-787.83441	9.52160	641.41803	781.46796	16.49901	646.65704	-21.77010	613.08649	-989.52142	
5290	52.890	-715.98114	-9.11769	-577.20752	698.56146	0.57894	-492.26141	-787.89154	9.48414	641.43243	781.39740	16.36929	646.63519	-21.87593	613.22058	-989.16492	
5291	52.900	-715.95435	-9.11793	-577.27112	698.61731	0.42748	-492.31268	-787.94128	9.19668	641.30682	781.47906	16.17691	646.62750	-21.81649	613.28326	-988.78607	
5292	52.910	-715.95856	-9.03493	-577.24048	698.67035	0.45582	-492.25821	-787.96393	9.01272	641.37061	781.47052	16.14918	646.60590	-21.70385	613.37811	-988.42969	
